<svg width="30" height="16" viewBox="0 0 30 16" fill="none" xmlns="http://www.w3.org/2000/svg">
<path d="M0.942862 2.00898C0.942862 1.5982 1.08204 1.25363 1.3604 0.975274C1.6378 0.697879 1.98188 0.559182 2.39266 0.559182L25.5894 0.559183C26.0002 0.559183 26.3447 0.69788 26.6231 0.975275C26.9005 1.25364 27.0392 1.5982 27.0392 2.00898L27.0392 4.90857L29.9388 4.90857L29.9388 10.7078L27.0392 10.7078L27.0392 13.6073C27.0392 14.0181 26.9005 14.3622 26.6231 14.6396C26.3447 14.918 26.0002 15.0571 25.5894 15.0571L2.39266 15.0571C1.98188 15.0571 1.6378 14.918 1.3604 14.6396C1.08204 14.3622 0.942862 14.0181 0.942862 13.6073L0.942862 2.00898ZM18.3404 3.45877L18.3404 12.1576L24.1396 12.1576L24.1396 3.45877L18.3404 3.45877Z" fill="#243852"/>
</svg>
