<svg width="21" height="16" viewBox="0 0 21 16" fill="none" xmlns="http://www.w3.org/2000/svg">
<path d="M5.40909 10.2387L3.66481 8.40514C4.48158 7.56653 5.44038 6.90219 6.54122 6.4121C7.6415 5.92144 8.82845 5.67611 10.1021 5.67611C11.3757 5.67611 12.5629 5.92485 13.6637 6.42233C14.764 6.91981 15.7225 7.59496 16.5393 8.44778L14.795 10.2387C14.1859 9.6133 13.4799 9.12293 12.6769 8.76759C11.874 8.41225 11.0157 8.23458 10.1021 8.23458C9.18838 8.23458 8.33008 8.41225 7.52715 8.76759C6.72423 9.12293 6.01821 9.6133 5.40909 10.2387ZM1.87899 6.61422L0.134705 4.82329C1.40831 3.48721 2.89649 2.4425 4.59925 1.68917C6.302 0.935848 8.13627 0.559186 10.1021 0.559186C12.0678 0.559186 13.9021 0.935848 15.6049 1.68917C17.3076 2.4425 18.7958 3.48721 20.0694 4.82329L18.3251 6.61422C17.2592 5.51976 16.0238 4.66325 14.6189 4.04467C13.2135 3.42665 11.7079 3.11765 10.1021 3.11765C8.4962 3.11765 6.99058 3.42665 5.58518 4.04467C4.18034 4.66325 2.94494 5.51976 1.87899 6.61422ZM10.1021 15.0571L13.03 12.0296C12.6562 11.6459 12.2201 11.3437 11.7217 11.1231C11.2234 10.9031 10.6835 10.793 10.1021 10.793C9.52062 10.793 8.98072 10.9031 8.48236 11.1231C7.98399 11.3437 7.54792 11.6459 7.17414 12.0296L10.1021 15.0571Z" fill="#243852"/>
</svg>
